<svg width="100" height="100" viewBox="0 0 100 100" fill="none" xmlns="http://www.w3.org/2000/svg">
<g clip-path="url(#clip0_129380_459568)">
<rect width="100" height="100" rx="50" fill="white"/>
<path fill-rule="evenodd" clip-rule="evenodd" d="M50 100C77.6142 100 100 77.6142 100 50C100 22.3858 77.6142 0 50 0C22.3858 0 0 22.3858 0 50C0 77.6142 22.3858 100 50 100Z" fill="#2C5599"/>
<path fill-rule="evenodd" clip-rule="evenodd" d="M29.1102 45.2935L29.2436 45.2251L27.2398 45.052C26.8788 45.0208 26.554 44.82 26.3648 44.5109C25.9678 43.8625 26.3039 43.0146 27.0373 42.8142L28.1569 42.5083L25.5465 42.0987C25.0386 42.019 24.6402 41.6206 24.5606 41.1127C24.4505 40.4106 24.9797 39.7705 25.69 39.7465L27.1236 39.6981L24.7459 38.8549C24.2928 38.6942 23.99 38.2656 23.99 37.7849C23.99 37.1136 24.5693 36.5889 25.2373 36.6552L26.8075 36.8108L24.5576 35.7855C24.1095 35.5813 23.8387 35.1171 23.8814 34.6265C23.94 33.9525 24.5596 33.4706 25.2273 33.5797L26.6657 33.8148L24.6642 32.2479C24.3638 32.0127 24.1998 31.6436 24.2267 31.263C24.2858 30.426 25.1937 29.9331 25.9279 30.3395L26.8075 30.8264L25.2694 28.858C25.0329 28.5554 24.9402 28.1647 25.0155 27.7881C25.2092 26.8196 26.36 26.4004 27.1312 27.0174L28.1569 27.838L26.823 25.5308C26.562 25.0795 26.4845 24.5451 26.6064 24.0382C26.8277 23.1183 27.9801 22.8125 28.6219 23.5077C30.9239 26.0015 35.3317 30.7988 37.8851 33.7228C38.2874 34.1835 38.4484 34.8046 38.3284 35.4043L37.7454 38.3194C37.5543 39.2747 38.285 40.166 39.2593 40.166C40.112 40.166 40.8032 39.4748 40.8032 38.6222V35.5966C43.2929 34.4542 43.7305 30.8264 41.7406 28.7424H35.5554V27.1125C35.5554 25.8507 36.5783 24.8278 37.8402 24.8278H38.4805V22.4602C38.4805 21.8293 38.992 21.3178 39.6229 21.3178H40.6539V18.6011H42.8273V21.3178H43.8583C44.4892 21.3178 45.0007 21.8293 45.0007 22.4602V24.8278C45.0007 24.8278 48.7998 27.6 49.8908 31.8717C50.9819 27.6 54.8322 24.8278 54.8322 24.8278V22.4602C54.8322 21.8293 55.3437 21.3178 55.9746 21.3178H57.0056V18.6011H59.179V21.3178H60.21C60.8409 21.3178 61.3524 21.8293 61.3524 22.4602V24.8278H61.9928C63.2546 24.8278 64.2775 25.8507 64.2775 27.1125V28.7424H58.0923C56.1024 30.8264 56.5401 34.4542 59.0297 35.5966V38.6222C59.0297 39.4748 59.721 40.166 60.5736 40.166C61.5479 40.166 62.2786 39.2747 62.0875 38.3194L61.5045 35.4043C61.3845 34.8046 61.5455 34.1835 61.9478 33.7228C64.5012 30.7988 68.909 26.0015 71.211 23.5077C71.8528 22.8125 73.0052 23.1183 73.2265 24.0382C73.3484 24.5451 73.2709 25.0795 73.0099 25.5308L71.676 27.838L72.7017 27.0174C73.473 26.4004 74.6237 26.8196 74.8174 27.7881C74.8927 28.1647 74.8 28.5554 74.5636 28.858L73.0255 30.8264L73.905 30.3395C74.6392 29.9331 75.5471 30.426 75.6062 31.263C75.6331 31.6436 75.4692 32.0127 75.1687 32.2479L73.1673 33.8148L74.6056 33.5797C75.2734 33.4706 75.8929 33.9525 75.9516 34.6265C75.9942 35.1171 75.7234 35.5813 75.2754 35.7855L73.0255 36.8108L74.5956 36.6552C75.2636 36.5889 75.8429 37.1136 75.8429 37.7849C75.8429 38.2656 75.5401 38.6942 75.0871 38.8549L72.7094 39.6981L74.1429 39.7465C74.8532 39.7705 75.3824 40.4106 75.2723 41.1127C75.1927 41.6206 74.7943 42.019 74.2864 42.0987L71.676 42.5083L72.7956 42.8142C73.529 43.0146 73.8651 43.8625 73.4682 44.5109C73.2789 44.82 72.9542 45.0208 72.5931 45.052L70.5893 45.2251L70.7227 45.2935C71.8273 45.8596 72.2778 47.2041 71.7374 48.3214L71.1326 49.5718L67.3292 50.9302H58.6357V54.462C59.8974 54.6385 60.2179 56.314 59.1104 56.9437L54.47 59.582L53.219 62.6122L57.549 64.2422L59.7453 63.9677C60.6452 63.8552 61.2957 64.8071 60.8639 65.6046C60.6091 66.0752 60.0559 66.2983 59.5459 66.1363L57.0056 65.3289L56.7447 66.3728C56.5654 67.0897 56.0819 67.6925 55.4209 68.023C54.7083 68.3793 53.8695 68.3793 53.1568 68.023L52.1155 67.5023C52.1155 68.7026 51.1424 69.6757 49.9421 69.6757H49.8908C48.6905 69.6757 47.7174 68.7026 47.7174 67.5023L46.6761 68.023C45.9634 68.3793 45.1246 68.3793 44.412 68.023C43.751 67.6925 43.2675 67.0897 43.0883 66.3728L42.8273 65.3289L40.287 66.1363C39.777 66.2983 39.2238 66.0752 38.969 65.6046C38.5372 64.8071 39.1877 63.8552 40.0876 63.9677L42.2839 64.2422L46.6139 62.6122L45.3629 59.582L37.3761 56.1592L39.4081 50.9302H32.5037L28.7003 49.5718L28.0955 48.3214C27.5551 47.2041 28.0056 45.8596 29.1102 45.2935Z" fill="#B7C9E1"/>
<path fill-rule="evenodd" clip-rule="evenodd" d="M51.0258 13.7109H48.8524V15.8843H46.8468C46.0855 15.8843 45.5372 16.615 45.75 17.346L47.2224 22.4045H52.6558L54.0613 17.3317C54.263 16.604 53.7156 15.8843 52.9604 15.8843H51.0258V13.7109Z" fill="#B7C9E1"/>
<path d="M43.9752 37.8809H55.9289V49.0581C55.9289 50.0189 55.3278 50.877 54.4249 51.2053L50.3424 52.6898C50.0902 52.7815 49.8138 52.7815 49.5616 52.6898L45.4792 51.2053C44.5763 50.877 43.9752 50.0189 43.9752 49.0581V37.8809Z" fill="white"/>
<path fill-rule="evenodd" clip-rule="evenodd" d="M61.7183 43.1834L66.0186 44.067C67.8675 44.4468 68.7482 46.5738 67.7091 48.1495C67.3768 48.6535 67.2303 49.2464 67.2769 49.8307L69.2467 48.8193C69.2958 47.3533 70.5201 46.2006 71.9882 46.2417C73.4613 46.2829 74.6221 47.5105 74.5808 48.9836C74.5396 50.4567 73.312 51.6175 71.8389 51.5763C71.4705 51.5659 71.1216 51.4814 70.8061 51.3374L68.8019 52.3617C69.1824 52.5765 69.6187 52.6951 70.0734 52.6941C71.7947 52.6901 73.0354 54.3431 72.551 55.9948L70.8531 61.7839L66.7426 53.4142L60.6253 56.5406C61.6612 57.4907 63.2539 58.4456 64.0807 58.0713C64.7701 57.7593 64.9112 57.3169 65.0187 56.8718C65.1462 56.3442 65.6783 56.1282 66.2008 56.2751C66.68 56.4099 67.0445 56.8122 66.9981 57.3078C66.9257 58.0798 66.5853 59.2272 65.2997 59.9484C63.0054 61.2355 60.5664 59.4744 58.6579 58.0964C58.5052 57.9861 58.356 57.8784 58.2104 57.7748L56.9611 58.4133C56.9814 60.7622 56.8284 63.3367 55.3771 63.6995C53.5629 64.153 51.4957 63.2815 49.4922 62.2305L47.6874 63.1529C47.4389 64.6323 47.05 65.87 46.1395 66.4162C44.0149 67.6907 42.1776 66.7828 41.4777 66.3265L39.0408 67.572C38.3226 67.939 37.443 67.6461 37.0883 66.9218C36.7424 66.2156 37.0256 65.3626 37.7251 65.0034L40.0999 63.7841C40.1871 62.5402 40.6438 60.8477 42.3349 59.8961C43.3747 59.311 44.7884 59.776 46.3747 60.5624L48.1646 59.6435C48.4751 57.6687 49.0054 55.836 50.485 55.0059C51.9131 54.2048 53.7538 54.939 55.4149 55.921L56.9377 55.1391C56.9388 54.954 56.9385 54.763 56.9382 54.5674L56.9382 54.5673C56.9347 52.2133 56.9303 49.2049 59.3152 48.0947C60.6516 47.4727 61.7817 47.8667 62.4506 48.259C62.8799 48.5108 62.9934 49.0417 62.8229 49.5093C62.6369 50.0192 62.1507 50.3249 61.648 50.1201C61.224 49.9474 60.7825 49.8035 60.1265 50.1807C59.336 50.6352 59.1828 52.5011 59.3526 53.8992L65.4447 50.7713L61.7183 43.1834Z" fill="#FFD570"/>
<path d="M47.4232 64.3786L40.929 61.1834C41.2598 60.6934 41.7142 60.2444 42.3348 59.8951C42.546 59.7763 42.7726 59.7007 43.013 59.6624L48.8733 62.5458L47.6873 63.1519C47.6145 63.5853 47.5297 63.998 47.4232 64.3786Z" fill="#B7C9E1"/>
<path d="M56.9613 58.4494L56.1092 58.1475L54.6456 59.9538L48.7895 57.1265C48.4909 57.8827 48.3051 58.748 48.1645 59.6425L46.9341 60.2742L54.2805 63.8211C54.6542 63.8256 55.0205 63.7876 55.377 63.6985C55.4852 63.6714 55.5862 63.6321 55.6805 63.5815L56.7558 61.6319C56.9395 60.6898 56.9699 59.5465 56.9613 58.4494Z" fill="#B7C9E1"/>
<path fill-rule="evenodd" clip-rule="evenodd" d="M32.358 52.6201L31.7747 53.7736C31.1451 55.0189 29.6251 55.518 28.3798 54.8884C27.1345 54.2587 26.6354 52.7387 27.265 51.4934L27.8483 50.3399C28.478 49.0946 29.9979 48.5955 31.2432 49.2251C32.4886 49.8548 32.9876 51.3748 32.358 52.6201ZM25.8094 49.3089C27.0084 46.9376 29.9028 45.9872 32.2742 47.1862C34.5538 48.3389 35.5203 51.0583 34.5264 53.3737L54.5206 63.027L56.7503 59.8052L63.2128 63.1781L60.9522 66.8015C60.3313 67.7967 59.0576 68.16 58.0051 67.6421L33.3694 55.5212C31.9965 57.3559 29.4645 57.997 27.3488 56.9273C24.9775 55.7282 24.0271 52.8339 25.2261 50.4625L25.8094 49.3089Z" fill="#FFD570"/>
<path d="M46.1477 49.0286V47.0202H53.7546V49.0286H46.1477Z" fill="#B7C9E1"/>
<path d="M53.7546 40.335V45.7685H46.1477V44.7354L49.8939 42.4508L46.1478 42.4507L47.6091 40.166L51.5812 41.9867V40.335H53.7546Z" fill="#B7C9E1"/>
<path d="M35.0405 57.3009L36.6706 52.9541L41.0173 55.1275L38.3006 58.9309L35.0405 57.3009Z" fill="#B7C9E1"/>
<path d="M35 77.5H65V83.7339C65 84.4332 64.4331 85 63.7339 85H36.2661C35.5668 85 35 84.4332 35 83.7339V77.5Z" fill="#D63831"/>
<path d="M35 70H65V77.5H35V70Z" fill="#2E65AD"/>
<path d="M35 63.7661C35 63.0668 35.5668 62.5 36.2661 62.5H63.7339C64.4332 62.5 65 63.0668 65 63.7661V70H35V63.7661Z" fill="white"/>
</g>
<rect x="1" y="1" width="98" height="98" rx="49" stroke="#F0F2F5" stroke-width="2"/>
<defs>
<clipPath id="clip0_129380_459568">
<rect width="100" height="100" rx="50" fill="white"/>
</clipPath>
</defs>
</svg>
