<svg width="100" height="100" viewBox="0 0 100 100" fill="none" xmlns="http://www.w3.org/2000/svg">
<rect x="1" y="1" width="98" height="98" rx="49" fill="#3A83F1"/>
<path d="M44.5201 17.9736L42.3401 23.6416L50 31.3015L57.66 23.6416L55.48 17.9736C70.8198 20.5784 82.5 33.932 82.5 50.0136C82.5 67.9628 67.9492 82.5136 50 82.5136C32.0507 82.5136 17.5 67.9628 17.5 50.0136C17.5 33.932 29.1803 20.5784 44.5201 17.9736Z" fill="#FFD570"/>
<path d="M24.9198 28.9733L20.8085 35.8254L23.5494 38.5662L28.1176 33.9981L44.5629 50.4434L20.8085 74.1978C20.6372 74.3691 20.5409 74.6015 20.5409 74.8438L20.5405 79.4903C20.5405 79.7426 20.745 79.9472 20.9973 79.9472H25.6443C25.8866 79.9472 26.119 79.8509 26.2903 79.6796L50.0447 55.9252L73.7991 79.6796C73.9705 79.8509 74.2029 79.9472 74.4452 79.9472H79.0921C79.3444 79.9472 79.549 79.7426 79.5489 79.4903L79.5486 74.8438C79.5485 74.6015 79.4523 74.3691 79.281 74.1978L55.5265 50.4434L71.9719 33.9981L76.5401 38.5662L79.281 35.8254L75.1697 28.9733L80.72 23.8977C80.8913 23.7264 80.9876 23.494 80.9876 23.2517V20.4324C80.9876 20.1801 80.783 19.9756 80.5307 19.9756H77.7114C77.4691 19.9756 77.2367 20.0718 77.0654 20.2432L71.5152 25.3187L64.6628 21.2073L61.9219 23.9481L66.4901 28.5163L50.0447 44.9617L33.5994 28.5163L38.1675 23.9481L35.4266 21.2073L28.5742 25.3187L23.6171 20.2936C23.4457 20.1222 23.2133 20.026 22.971 20.026L20.1518 20.026C19.8995 20.026 19.6949 20.2305 19.6949 20.4828L19.6949 23.3021C19.6949 23.5444 19.7912 23.7767 19.9625 23.9481L24.9198 28.9733Z" fill="#C9D7E9"/>
<path d="M65.6751 65.1748L79.463 79.9475L74.0463 79.9475L62.7206 68.6218L65.6751 65.1748Z" fill="#B0C4DE"/>
<path d="M34.4216 65.1748L20.6337 79.9475L26.0503 79.9475L37.3761 68.6218L34.4216 65.1748Z" fill="#B0C4DE"/>
<path opacity="0.4" d="M73.2397 33.0612L67.4417 27.2632L64.0623 30.73L69.7915 36.4591L73.2397 33.0612Z" fill="#163054"/>
<path opacity="0.4" d="M26.8553 33.0612L32.6534 27.2632L36.979 31.7716L31.25 37.5007L26.8553 33.0612Z" fill="#163054"/>
<path d="M75.0358 50.5674C75.0358 64.3664 63.8495 75.5527 50.0505 75.5527C36.2514 75.5527 25.0651 64.3664 25.0651 50.5674C25.0651 36.7683 36.2514 25.582 50.0505 25.582C63.8495 25.582 75.0358 36.7683 75.0358 50.5674Z" fill="white"/>
<path d="M44.6565 46.4023H55.55V56.5883C55.55 57.4639 55.0023 58.2459 54.1795 58.5451L50.459 59.898C50.2292 59.9815 49.9773 59.9815 49.7475 59.898L46.0271 58.5451C45.2042 58.2459 44.6565 57.4639 44.6565 56.5883V46.4023Z" fill="white"/>
<path d="M75.0358 50.5674C75.0358 64.3664 63.8495 75.5527 50.0505 75.5527C36.2514 75.5527 25.0651 64.3664 25.0651 50.5674C25.0651 36.7683 36.2514 25.582 50.0505 25.582C63.8495 25.582 75.0358 36.7683 75.0358 50.5674Z" fill="white"/>
<path d="M49.9999 30.209L52.2922 34.0732L55.7882 31.2141L56.6002 35.6173L60.8783 34.1082L60.1121 38.5194L64.6563 38.5423L62.4044 42.4294L66.6666 43.9815L63.2005 46.8757L66.6666 49.7698L62.4044 51.3219L64.6563 55.209L60.1121 55.2319L60.8783 59.6431L56.6002 58.134L55.7882 62.5372L52.2922 59.6782L49.9999 63.5423L47.7077 59.6782L44.2116 62.5372L43.3996 58.134L39.1215 59.6431L39.8877 55.2319L35.3435 55.209L37.5955 51.3219L33.3333 49.7698L36.7994 46.8757L33.3333 43.9815L37.5955 42.4294L35.3435 38.5423L39.8877 38.5194L39.1215 34.1082L43.3996 35.6173L44.2116 31.2141L47.7077 34.0732L49.9999 30.209Z" fill="#B7C9E1"/>
<path d="M73.4658 59.3042C69.9233 68.7946 60.7761 75.5529 50.0505 75.5529C39.3248 75.5529 30.1777 68.7946 26.6351 59.3042H73.4658Z" fill="#D63831"/>
<path d="M72.9548 60.5655C74.2933 57.5037 75.0358 54.122 75.0358 50.5668C75.0358 47.363 74.4328 44.3001 73.3342 41.4854H26.7668C25.6788 44.2727 25.0769 47.3033 25.0653 50.4731V50.6604C25.0782 54.1813 25.8194 57.5306 27.1461 60.5655H72.9548Z" fill="#2E65AD"/>
<path d="M40.6864 60.978H59.4254V63.0601C59.4254 63.635 59.8915 64.1011 60.4664 64.1011H63.5896C64.1645 64.1011 64.6306 63.635 64.6306 63.0601V54.7309L62.0959 49.5264H38.0158L35.4811 54.7309V63.0601C35.4811 63.635 35.9472 64.1011 36.5221 64.1011H39.6453C40.2203 64.1011 40.6864 63.635 40.6864 63.0601V60.978Z" fill="white"/>
<path fill-rule="evenodd" clip-rule="evenodd" d="M57.4918 45.3595H42.5943C42.185 45.3595 41.8136 45.5994 41.6453 45.9726L39.9279 49.7813C39.4796 50.7754 39.1415 51.8122 38.9175 52.8732H61.1686C60.9446 51.8122 60.6065 50.7754 60.1582 49.7813L58.4408 45.9726C58.2725 45.5994 57.9011 45.3595 57.4918 45.3595ZM64.3485 52.8732C64.0869 51.3681 63.6367 49.8977 63.0053 48.4975L61.2879 44.6888C60.6148 43.196 59.1293 42.2363 57.4918 42.2363H42.5943C40.9568 42.2363 39.4713 43.196 38.7982 44.6888L37.0808 48.4975C36.4494 49.8977 35.9991 51.3681 35.7376 52.8732C35.5589 53.9018 35.4683 54.9467 35.4683 55.9964H64.6178C64.6178 54.9467 64.5272 53.9018 64.3485 52.8732Z" fill="white"/>
<path d="M44.8506 54.7314H55.2611V56.8136H44.8506V54.7314Z" fill="#B6C2D2"/>
<path d="M41.7166 40.1534C41.7166 39.5784 42.1826 39.1123 42.7576 39.1123H47.9629V42.2355H42.7576C42.1826 42.2355 41.7166 41.7694 41.7166 41.1944V40.1534Z" fill="#2E65AD"/>
<path d="M52.1541 39.1123H57.3593C57.9343 39.1123 58.4004 39.5784 58.4004 40.1534V41.1944C58.4004 41.7694 57.9343 42.2355 57.3593 42.2355H52.1541V39.1123Z" fill="#D63831"/>
<path d="M46.9528 39.1123H53.1991V42.2355H46.9528V39.1123Z" fill="white"/>
<path d="M57.3408 54.7276L62.5461 53.6865V56.8097H57.3408V54.7276Z" fill="#2E65AD"/>
<path d="M42.7638 54.7276L37.5585 53.6865V56.8097H42.7638V54.7276Z" fill="#2E65AD"/>
<path d="M40.6735 60.9775H35.4683V63.0597C35.4683 63.6346 35.9344 64.1007 36.5093 64.1007H39.6325C40.2074 64.1007 40.6735 63.6346 40.6735 63.0597V60.9775Z" fill="white"/>
<path d="M64.6178 60.9775H59.4125V63.0597C59.4125 63.6346 59.8786 64.1007 60.4536 64.1007H63.5768C64.1517 64.1007 64.6178 63.6346 64.6178 63.0597V60.9775Z" fill="white"/>
<rect x="1" y="1" width="98" height="98" rx="49" stroke="#F0F2F5" stroke-width="2"/>
</svg>
