<svg width="100" height="100" viewBox="0 0 100 100" fill="none" xmlns="http://www.w3.org/2000/svg">
<g clip-path="url(#clip0_128499_481276)">
<rect width="100" height="100" rx="50" fill="white"/>
<circle cx="50" cy="50" r="50" fill="#D63831"/>
<path d="M50.74 16.5454H48.1904V19.0934H46.965C45.5133 19.0934 44.4678 20.4866 44.8735 21.8804L46.2887 26.7424H52.6629L54.0175 21.8533C54.402 20.4656 53.3583 19.0934 51.9184 19.0934H50.74V16.5454Z" fill="#FFCF5C"/>
<path d="M25.1923 53.5136L22.7052 54.7884L22.9907 55.3788C23.9931 57.4514 25.77 59.0469 27.9381 59.8212C28.6535 60.0767 29.402 60.2276 30.1606 60.2693L39.2108 60.7666L35.6253 64.3521L46.3818 69.0211H47.3891L46.3818 75.1089C44.7923 76.1867 41.3222 74.6144 40.4096 76.3041L38.0193 77.4993L42.8 78.6945L41.4092 80.1379C41.6145 80.959 42.1683 81.6494 42.9253 82.0278C43.7415 82.4359 44.7022 82.4359 45.5184 82.0278L46.711 81.4315C46.711 82.8063 47.8255 83.9207 49.2002 83.9207H49.259C50.6337 83.9207 51.7482 82.8063 51.7482 81.4315L52.9408 82.0278C53.757 82.4359 54.7177 82.4359 55.5339 82.0278C56.2909 81.6494 56.8447 80.959 57.05 80.1379L55.9469 78.6945L60.3135 77.3101L58.3372 78.6945C57.4014 76.6266 53.065 78.743 51.1662 77.4993L52.3577 69.0211L60.3135 66.7425L64.3094 64.3521L60.1384 60.5038L68.6568 60.2437C69.4638 60.219 70.262 60.0682 71.0224 59.7966C73.1463 59.0381 74.887 57.475 75.869 55.4446L76.1864 54.7884L73.6993 53.5136L76.05 53.3105C76.4736 53.274 76.8546 53.0383 77.0766 52.6757C77.5422 51.9151 77.1479 50.9204 76.2876 50.6853L74.9741 50.3265L78.0365 49.8459C78.6323 49.7524 79.0997 49.2851 79.1931 48.6892C79.3222 47.8655 78.7014 47.1146 77.8681 47.0864L76.1864 47.0297L78.9758 46.0405C79.5073 45.852 79.8625 45.3492 79.8625 44.7853C79.8625 43.9978 79.1829 43.3822 78.3992 43.4599L76.5572 43.6425L79.1967 42.4396C79.7223 42.2001 80.04 41.6555 79.9899 41.0801C79.9211 40.2893 79.1943 39.724 78.4109 39.852L76.7236 40.1278L79.0716 38.2896C79.424 38.0137 79.6163 37.5807 79.5848 37.1342C79.5154 36.1522 78.4504 35.574 77.5891 36.0508L76.5572 36.622L78.3616 34.3128C78.639 33.9578 78.7478 33.4994 78.6594 33.0576C78.4322 31.9215 77.0822 31.4297 76.1775 32.1535L74.9741 33.1162L76.7027 30.1266C76.9038 29.7788 76.9635 29.367 76.8695 28.9764C76.5773 27.7612 75.0523 27.3602 74.2048 28.2788C71.4664 31.2467 66.5331 36.6203 63.6118 39.9625C63.1084 40.5384 62.9063 41.3161 63.0563 42.0662L63.7255 45.4123C63.9497 46.533 63.0925 47.5787 61.9495 47.5787C60.9493 47.5787 60.1384 46.7678 60.1384 45.7675V43.8148C60.1384 42.8418 59.5165 42.0004 58.8484 41.2931C57.1253 39.469 57.1053 36.2019 59.0386 34.1771H66.2947V32.0743C66.2947 30.6994 65.1801 29.5848 63.8052 29.5848H62.8632V27.3342C62.8632 26.3031 62.0272 25.4671 60.9961 25.4671H60.3135V22.28H57.7638V25.4671H57.0812C56.0501 25.4671 55.2141 26.3031 55.2141 27.3342V29.5848C55.2141 29.5848 50.6971 32.837 49.4172 37.8483V37.8545L49.4142 37.8483C48.1343 32.837 43.6775 29.5848 43.6775 29.5848V27.3342C43.6775 26.3031 42.8415 25.4671 41.8104 25.4671H41.1278V22.28H38.5781V25.4671H37.8955C36.8644 25.4671 36.0284 26.3031 36.0284 27.3342V29.5848H35.0864C33.7115 29.5848 32.5969 30.6994 32.5969 32.0743V34.1772H39.8529C41.7863 36.2019 41.7663 39.469 40.0432 41.2931C39.3751 42.0004 38.7532 42.8418 38.7532 43.8148V45.7675C38.7532 46.7678 37.9423 47.5787 36.9421 47.5787C35.7991 47.5787 34.9419 46.533 35.166 45.4123L35.8353 42.0662C35.9853 41.3161 35.7832 40.5384 35.2798 39.9625C32.3585 36.6203 27.4252 31.2467 24.6868 28.2788C23.8392 27.3602 22.3143 27.7612 22.0221 28.9764C21.9281 29.367 21.9878 29.7788 22.1889 30.1266L23.9175 33.1162L22.7141 32.1535C21.8094 31.4297 20.4594 31.9215 20.2322 33.0576C20.1438 33.4994 20.2525 33.9578 20.53 34.3128L22.3344 36.622L21.3025 36.0508C20.4412 35.574 19.3762 36.1522 19.3068 37.1342C19.2752 37.5807 19.4676 38.0137 19.82 38.2896L22.168 40.1278L20.4807 39.852C19.6973 39.724 18.9705 40.2893 18.9016 41.0801C18.8516 41.6555 19.1693 42.2001 19.6949 42.4396L22.3344 43.6425L20.4924 43.4599C19.7087 43.3822 19.0291 43.9978 19.0291 44.7853C19.0291 45.3492 19.3843 45.852 19.9158 46.0405L22.7052 47.0297L21.0234 47.0864C20.1902 47.1146 19.5694 47.8656 19.6985 48.6893C19.7919 49.2851 20.2593 49.7525 20.855 49.8459L23.9175 50.3265L23.2562 50.5071C22.0696 50.8313 21.5258 52.2033 22.168 53.2524L25.1923 53.5136Z" fill="#FFCF5C"/>
<path d="M64.3564 68.8673L64.318 64.3521L60.638 63.2898L56.9197 61.4307H45.7648L49.4831 72.5856L49.9759 66.7424V69.1328L59.5373 66.7424L60.2657 68.8388C61.0452 71.082 63.1595 72.5856 65.5342 72.5856H70.2938L68.0747 69.7969L64.3564 68.8673Z" fill="#FFCF5C"/>
<path d="M74.5839 68.8379C74.5839 70.8915 72.9191 72.5563 70.8655 72.5563C68.812 72.5563 67.1472 70.8915 67.1472 68.8379C67.1472 66.7844 68.812 65.1196 70.8655 65.1196C72.9191 65.1196 74.5839 66.7844 74.5839 68.8379Z" fill="#FFCF5C"/>
<path d="M35.6337 64.3521L42.5838 61.4307H53.7388L50.0204 72.5856L48.7807 72.7183L46.5984 67.2628L40.6226 66.0676L39.3588 69.1336C38.4978 71.2225 36.4616 72.5856 34.2022 72.5856H30.0967L28.9016 70.3279L35.1472 68.8673L35.6337 64.3521Z" fill="#FFCF5C"/>
<path d="M21.2917 60.8408L23.3175 59.5719L34.7374 77.8038L32.7116 79.0727L21.2917 60.8408Z" fill="#FFCF5C"/>
<path d="M42.5674 45H56.7253V58.2384C56.7253 59.3763 56.0134 60.3926 54.944 60.7815L50.1087 62.5398C49.81 62.6484 49.4827 62.6484 49.184 62.5398L44.3487 60.7815C43.2793 60.3926 42.5674 59.3763 42.5674 58.2384V45Z" fill="#D63831"/>
<path d="M45.1377 58.2019V55.8232H54.1473V58.2019H45.1377Z" fill="white"/>
<path d="M54.1473 47.9053V54.3407H45.1377V53.1171L49.5747 50.4111L45.1378 50.4111L46.8686 47.7051L51.5731 49.8615V47.9053H54.1473Z" fill="white"/>
<path d="M61.9316 78.3822C61.9316 78.3822 57.9877 83.9095 49.9798 83.9095C41.9719 83.9095 38.0273 78.3822 38.0273 78.3822V76.3034L46.6939 68.6973L48.8925 69.7839L52.8771 68.6973L61.9316 76.3034V78.3822Z" fill="#FFCF5C"/>
</g>
<rect x="1" y="1" width="98" height="98" rx="49" stroke="#F0F2F5" stroke-width="2"/>
<defs>
<clipPath id="clip0_128499_481276">
<rect width="100" height="100" rx="50" fill="white"/>
</clipPath>
</defs>
</svg>
